<svg width="72" height="54" viewBox="0 0 72 54" fill="none" xmlns="http://www.w3.org/2000/svg">
<path d="M66.6414 40.1184L16.5988 6.54749C13.3838 4.39066 8.31942 4.5937 5.28733 7.001C2.25524 9.40829 2.40358 13.1082 5.61866 15.2651L55.6612 48.836C58.8763 50.9928 63.9407 50.7898 66.9728 48.3825C70.0048 45.9752 69.8565 42.2752 66.6414 40.1184Z" fill="#F39E46" stroke="white" stroke-width="4"/>
<path d="M55.5056 3.56493L7.29411 39.4099C4.1466 41.75 3.73133 46.002 6.36658 48.9069C9.00183 51.8118 13.6897 52.2697 16.8372 49.9295L65.0487 14.0846C68.1962 11.7444 68.6115 7.49246 65.9763 4.58754C63.341 1.68261 58.6531 1.22478 55.5056 3.56493Z" fill="#F39E46" stroke="white" stroke-width="4"/>
</svg>
