<svg width="220" height="71" viewBox="0 0 220 71" fill="none" xmlns="http://www.w3.org/2000/svg">
<g filter="url(#filter0_d_3051_7)">
<path d="M8 33C8 19.1929 19.1929 8 33 8H183C196.807 8 208 19.1929 208 33V33C208 46.8071 196.807 58 183 58H33C19.1929 58 8 46.8071 8 33V33Z" fill="#83C252"/>
<path d="M183 4H33C16.9837 4 4 16.9837 4 33C4 49.0163 16.9837 62 33 62H183C199.016 62 212 49.0163 212 33C212 16.9837 199.016 4 183 4Z" stroke="white" stroke-width="8"/>
</g>
<mask id="path-3-outside-1_3051_7" maskUnits="userSpaceOnUse" x="50" y="25" width="117" height="18" fill="black">
<rect fill="white" x="50" y="25" width="117" height="18"/>
<path d="M62.4 37.43C62.5667 37.43 62.7067 37.49 62.82 37.61L64.01 38.88C63.4233 39.6267 62.6933 40.1933 61.82 40.58C60.9533 40.9667 59.92 41.16 58.72 41.16C57.6333 41.16 56.6567 40.9767 55.79 40.61C54.9233 40.2367 54.1867 39.72 53.58 39.06C52.9733 38.4 52.5067 37.6167 52.18 36.71C51.8533 35.8033 51.69 34.8133 51.69 33.74C51.69 33.02 51.7667 32.3367 51.92 31.69C52.08 31.0367 52.31 30.4367 52.61 29.89C52.91 29.3433 53.27 28.85 53.69 28.41C54.1167 27.97 54.5967 27.5967 55.13 27.29C55.6633 26.9767 56.2433 26.74 56.87 26.58C57.5033 26.4133 58.1767 26.33 58.89 26.33C59.4233 26.33 59.9267 26.3767 60.4 26.47C60.88 26.5633 61.3267 26.6933 61.74 26.86C62.1533 27.0267 62.5333 27.23 62.88 27.47C63.2333 27.7033 63.55 27.96 63.83 28.24L62.82 29.62C62.76 29.7067 62.6833 29.7833 62.59 29.85C62.4967 29.9167 62.37 29.95 62.21 29.95C62.05 29.95 61.8867 29.8933 61.72 29.78C61.56 29.6667 61.36 29.54 61.12 29.4C60.8867 29.26 60.59 29.1333 60.23 29.02C59.8767 28.9067 59.4267 28.85 58.88 28.85C58.2733 28.85 57.7167 28.96 57.21 29.18C56.7033 29.4 56.2667 29.72 55.9 30.14C55.54 30.5533 55.26 31.0633 55.06 31.67C54.86 32.2767 54.76 32.9667 54.76 33.74C54.76 34.52 54.8667 35.2167 55.08 35.83C55.3 36.4367 55.5967 36.95 55.97 37.37C56.35 37.79 56.79 38.11 57.29 38.33C57.7967 38.5433 58.3367 38.65 58.91 38.65C59.25 38.65 59.5567 38.6333 59.83 38.6C60.11 38.5667 60.3667 38.51 60.6 38.43C60.84 38.35 61.0633 38.2467 61.27 38.12C61.4833 37.9933 61.6967 37.8333 61.91 37.64C61.9833 37.58 62.06 37.53 62.14 37.49C62.22 37.45 62.3067 37.43 62.4 37.43ZM81.6111 33.74C81.6111 34.8 81.4311 35.7833 81.0711 36.69C80.7178 37.5967 80.2144 38.38 79.5611 39.04C78.9144 39.7 78.1344 40.22 77.2211 40.6C76.3078 40.9733 75.2944 41.16 74.1811 41.16C73.0678 41.16 72.0544 40.9733 71.1411 40.6C70.2278 40.22 69.4444 39.7 68.7911 39.04C68.1378 38.38 67.6311 37.5967 67.2711 36.69C66.9178 35.7833 66.7411 34.8 66.7411 33.74C66.7411 32.68 66.9178 31.7 67.2711 30.8C67.6311 29.8933 68.1378 29.11 68.7911 28.45C69.4444 27.79 70.2278 27.2733 71.1411 26.9C72.0544 26.52 73.0678 26.33 74.1811 26.33C75.2944 26.33 76.3078 26.52 77.2211 26.9C78.1344 27.2733 78.9144 27.7933 79.5611 28.46C80.2144 29.12 80.7178 29.9033 81.0711 30.81C81.4311 31.71 81.6111 32.6867 81.6111 33.74ZM78.5411 33.74C78.5411 32.98 78.4411 32.3 78.2411 31.7C78.0411 31.0933 77.7511 30.58 77.3711 30.16C76.9978 29.7333 76.5411 29.41 76.0011 29.19C75.4678 28.9633 74.8611 28.85 74.1811 28.85C73.5011 28.85 72.8911 28.9633 72.3511 29.19C71.8111 29.41 71.3511 29.7333 70.9711 30.16C70.5978 30.58 70.3111 31.0933 70.1111 31.7C69.9111 32.3 69.8111 32.98 69.8111 33.74C69.8111 34.5067 69.9111 35.1933 70.1111 35.8C70.3111 36.4 70.5978 36.91 70.9711 37.33C71.3511 37.75 71.8111 38.0733 72.3511 38.3C72.8911 38.52 73.5011 38.63 74.1811 38.63C74.8611 38.63 75.4678 38.52 76.0011 38.3C76.5411 38.0733 76.9978 37.75 77.3711 37.33C77.7511 36.91 78.0411 36.4 78.2411 35.8C78.4411 35.1933 78.5411 34.5067 78.5411 33.74ZM102.002 26.49V41H99.352V32.09C99.352 31.9033 99.3554 31.7033 99.362 31.49C99.3754 31.2767 99.3954 31.06 99.422 30.84L95.272 38.71C95.0454 39.1433 94.6954 39.36 94.222 39.36H93.802C93.5687 39.36 93.362 39.3067 93.182 39.2C93.002 39.0867 92.8587 38.9233 92.752 38.71L88.582 30.81C88.602 31.0433 88.6187 31.27 88.632 31.49C88.6454 31.7033 88.652 31.9033 88.652 32.09V41H86.002V26.49H88.282C88.4087 26.49 88.522 26.4933 88.622 26.5C88.722 26.5067 88.8087 26.5267 88.882 26.56C88.962 26.5867 89.032 26.6333 89.092 26.7C89.1587 26.76 89.222 26.8467 89.282 26.96L93.342 34.7C93.4687 34.9333 93.5854 35.1733 93.692 35.42C93.8054 35.6667 93.912 35.92 94.012 36.18C94.112 35.9133 94.2154 35.6533 94.322 35.4C94.4354 35.1467 94.5554 34.9033 94.682 34.67L98.712 26.96C98.772 26.8467 98.8354 26.76 98.902 26.7C98.9687 26.6333 99.0387 26.5867 99.112 26.56C99.192 26.5267 99.2787 26.5067 99.372 26.5C99.472 26.4933 99.5887 26.49 99.722 26.49H102.002ZM112.125 33.71C113.065 33.71 113.752 33.4833 114.185 33.03C114.625 32.5767 114.845 31.9567 114.845 31.17C114.845 30.81 114.789 30.4833 114.675 30.19C114.569 29.89 114.402 29.6367 114.175 29.43C113.955 29.2167 113.675 29.0533 113.335 28.94C112.995 28.8267 112.592 28.77 112.125 28.77H110.225V33.71H112.125ZM112.125 26.49C113.119 26.49 113.975 26.6067 114.695 26.84C115.422 27.0733 116.019 27.4 116.485 27.82C116.952 28.2333 117.295 28.7267 117.515 29.3C117.742 29.8733 117.855 30.4967 117.855 31.17C117.855 31.8833 117.739 32.5367 117.505 33.13C117.272 33.7233 116.919 34.2333 116.445 34.66C115.972 35.0867 115.375 35.42 114.655 35.66C113.935 35.8933 113.092 36.01 112.125 36.01H110.225V41H107.225V26.49H112.125ZM126.505 33.36C126.991 33.36 127.411 33.3 127.765 33.18C128.118 33.0533 128.408 32.8833 128.635 32.67C128.861 32.45 129.028 32.1933 129.135 31.9C129.241 31.6067 129.295 31.2867 129.295 30.94C129.295 30.2533 129.065 29.72 128.605 29.34C128.151 28.96 127.458 28.77 126.525 28.77H124.965V33.36H126.505ZM133.535 41H130.825C130.318 41 129.951 40.8067 129.725 40.42L126.965 35.97C126.851 35.7967 126.725 35.67 126.585 35.59C126.451 35.51 126.251 35.47 125.985 35.47H124.965V41H121.965V26.49H126.525C127.538 26.49 128.405 26.5967 129.125 26.81C129.845 27.0167 130.435 27.3067 130.895 27.68C131.355 28.0533 131.691 28.5 131.905 29.02C132.118 29.5333 132.225 30.1 132.225 30.72C132.225 31.2 132.155 31.6567 132.015 32.09C131.881 32.5167 131.685 32.9067 131.425 33.26C131.165 33.6133 130.845 33.9267 130.465 34.2C130.085 34.4733 129.651 34.6933 129.165 34.86C129.358 34.9667 129.538 35.0967 129.705 35.25C129.871 35.3967 130.021 35.5733 130.155 35.78L133.535 41ZM144.813 35.49L143.243 31.05C143.149 30.8167 143.049 30.5433 142.943 30.23C142.843 29.9167 142.746 29.5767 142.653 29.21C142.559 29.5833 142.459 29.93 142.353 30.25C142.253 30.5633 142.156 30.8367 142.063 31.07L140.503 35.49H144.813ZM149.853 41H147.523C147.263 41 147.049 40.94 146.883 40.82C146.723 40.6933 146.603 40.5333 146.523 40.34L145.543 37.57H139.763L138.783 40.34C138.716 40.5067 138.599 40.66 138.433 40.8C138.266 40.9333 138.056 41 137.803 41H135.453L141.123 26.49H144.193L149.853 41ZM157.936 33.36C158.422 33.36 158.842 33.3 159.196 33.18C159.549 33.0533 159.839 32.8833 160.066 32.67C160.292 32.45 160.459 32.1933 160.566 31.9C160.672 31.6067 160.726 31.2867 160.726 30.94C160.726 30.2533 160.496 29.72 160.036 29.34C159.582 28.96 158.889 28.77 157.956 28.77H156.396V33.36H157.936ZM164.966 41H162.256C161.749 41 161.382 40.8067 161.156 40.42L158.396 35.97C158.282 35.7967 158.156 35.67 158.016 35.59C157.882 35.51 157.682 35.47 157.416 35.47H156.396V41H153.396V26.49H157.956C158.969 26.49 159.836 26.5967 160.556 26.81C161.276 27.0167 161.866 27.3067 162.326 27.68C162.786 28.0533 163.122 28.5 163.336 29.02C163.549 29.5333 163.656 30.1 163.656 30.72C163.656 31.2 163.586 31.6567 163.446 32.09C163.312 32.5167 163.116 32.9067 162.856 33.26C162.596 33.6133 162.276 33.9267 161.896 34.2C161.516 34.4733 161.082 34.6933 160.596 34.86C160.789 34.9667 160.969 35.0967 161.136 35.25C161.302 35.3967 161.452 35.5733 161.586 35.78L164.966 41Z"/>
</mask>
<path d="M62.4 37.43C62.5667 37.43 62.7067 37.49 62.82 37.61L64.01 38.88C63.4233 39.6267 62.6933 40.1933 61.82 40.58C60.9533 40.9667 59.92 41.16 58.72 41.16C57.6333 41.16 56.6567 40.9767 55.79 40.61C54.9233 40.2367 54.1867 39.72 53.58 39.06C52.9733 38.4 52.5067 37.6167 52.18 36.71C51.8533 35.8033 51.69 34.8133 51.69 33.74C51.69 33.02 51.7667 32.3367 51.92 31.69C52.08 31.0367 52.31 30.4367 52.61 29.89C52.91 29.3433 53.27 28.85 53.69 28.41C54.1167 27.97 54.5967 27.5967 55.13 27.29C55.6633 26.9767 56.2433 26.74 56.87 26.58C57.5033 26.4133 58.1767 26.33 58.89 26.33C59.4233 26.33 59.9267 26.3767 60.4 26.47C60.88 26.5633 61.3267 26.6933 61.74 26.86C62.1533 27.0267 62.5333 27.23 62.88 27.47C63.2333 27.7033 63.55 27.96 63.83 28.24L62.82 29.62C62.76 29.7067 62.6833 29.7833 62.59 29.85C62.4967 29.9167 62.37 29.95 62.21 29.95C62.05 29.95 61.8867 29.8933 61.72 29.78C61.56 29.6667 61.36 29.54 61.12 29.4C60.8867 29.26 60.59 29.1333 60.23 29.02C59.8767 28.9067 59.4267 28.85 58.88 28.85C58.2733 28.85 57.7167 28.96 57.21 29.18C56.7033 29.4 56.2667 29.72 55.9 30.14C55.54 30.5533 55.26 31.0633 55.06 31.67C54.86 32.2767 54.76 32.9667 54.76 33.74C54.76 34.52 54.8667 35.2167 55.08 35.83C55.3 36.4367 55.5967 36.95 55.97 37.37C56.35 37.79 56.79 38.11 57.29 38.33C57.7967 38.5433 58.3367 38.65 58.91 38.65C59.25 38.65 59.5567 38.6333 59.83 38.6C60.11 38.5667 60.3667 38.51 60.6 38.43C60.84 38.35 61.0633 38.2467 61.27 38.12C61.4833 37.9933 61.6967 37.8333 61.91 37.64C61.9833 37.58 62.06 37.53 62.14 37.49C62.22 37.45 62.3067 37.43 62.4 37.43ZM81.6111 33.74C81.6111 34.8 81.4311 35.7833 81.0711 36.69C80.7178 37.5967 80.2144 38.38 79.5611 39.04C78.9144 39.7 78.1344 40.22 77.2211 40.6C76.3078 40.9733 75.2944 41.16 74.1811 41.16C73.0678 41.16 72.0544 40.9733 71.1411 40.6C70.2278 40.22 69.4444 39.7 68.7911 39.04C68.1378 38.38 67.6311 37.5967 67.2711 36.69C66.9178 35.7833 66.7411 34.8 66.7411 33.74C66.7411 32.68 66.9178 31.7 67.2711 30.8C67.6311 29.8933 68.1378 29.11 68.7911 28.45C69.4444 27.79 70.2278 27.2733 71.1411 26.9C72.0544 26.52 73.0678 26.33 74.1811 26.33C75.2944 26.33 76.3078 26.52 77.2211 26.9C78.1344 27.2733 78.9144 27.7933 79.5611 28.46C80.2144 29.12 80.7178 29.9033 81.0711 30.81C81.4311 31.71 81.6111 32.6867 81.6111 33.74ZM78.5411 33.74C78.5411 32.98 78.4411 32.3 78.2411 31.7C78.0411 31.0933 77.7511 30.58 77.3711 30.16C76.9978 29.7333 76.5411 29.41 76.0011 29.19C75.4678 28.9633 74.8611 28.85 74.1811 28.85C73.5011 28.85 72.8911 28.9633 72.3511 29.19C71.8111 29.41 71.3511 29.7333 70.9711 30.16C70.5978 30.58 70.3111 31.0933 70.1111 31.7C69.9111 32.3 69.8111 32.98 69.8111 33.74C69.8111 34.5067 69.9111 35.1933 70.1111 35.8C70.3111 36.4 70.5978 36.91 70.9711 37.33C71.3511 37.75 71.8111 38.0733 72.3511 38.3C72.8911 38.52 73.5011 38.63 74.1811 38.63C74.8611 38.63 75.4678 38.52 76.0011 38.3C76.5411 38.0733 76.9978 37.75 77.3711 37.33C77.7511 36.91 78.0411 36.4 78.2411 35.8C78.4411 35.1933 78.5411 34.5067 78.5411 33.74ZM102.002 26.49V41H99.352V32.09C99.352 31.9033 99.3554 31.7033 99.362 31.49C99.3754 31.2767 99.3954 31.06 99.422 30.84L95.272 38.71C95.0454 39.1433 94.6954 39.36 94.222 39.36H93.802C93.5687 39.36 93.362 39.3067 93.182 39.2C93.002 39.0867 92.8587 38.9233 92.752 38.71L88.582 30.81C88.602 31.0433 88.6187 31.27 88.632 31.49C88.6454 31.7033 88.652 31.9033 88.652 32.09V41H86.002V26.49H88.282C88.4087 26.49 88.522 26.4933 88.622 26.5C88.722 26.5067 88.8087 26.5267 88.882 26.56C88.962 26.5867 89.032 26.6333 89.092 26.7C89.1587 26.76 89.222 26.8467 89.282 26.96L93.342 34.7C93.4687 34.9333 93.5854 35.1733 93.692 35.42C93.8054 35.6667 93.912 35.92 94.012 36.18C94.112 35.9133 94.2154 35.6533 94.322 35.4C94.4354 35.1467 94.5554 34.9033 94.682 34.67L98.712 26.96C98.772 26.8467 98.8354 26.76 98.902 26.7C98.9687 26.6333 99.0387 26.5867 99.112 26.56C99.192 26.5267 99.2787 26.5067 99.372 26.5C99.472 26.4933 99.5887 26.49 99.722 26.49H102.002ZM112.125 33.71C113.065 33.71 113.752 33.4833 114.185 33.03C114.625 32.5767 114.845 31.9567 114.845 31.17C114.845 30.81 114.789 30.4833 114.675 30.19C114.569 29.89 114.402 29.6367 114.175 29.43C113.955 29.2167 113.675 29.0533 113.335 28.94C112.995 28.8267 112.592 28.77 112.125 28.77H110.225V33.71H112.125ZM112.125 26.49C113.119 26.49 113.975 26.6067 114.695 26.84C115.422 27.0733 116.019 27.4 116.485 27.82C116.952 28.2333 117.295 28.7267 117.515 29.3C117.742 29.8733 117.855 30.4967 117.855 31.17C117.855 31.8833 117.739 32.5367 117.505 33.13C117.272 33.7233 116.919 34.2333 116.445 34.66C115.972 35.0867 115.375 35.42 114.655 35.66C113.935 35.8933 113.092 36.01 112.125 36.01H110.225V41H107.225V26.49H112.125ZM126.505 33.36C126.991 33.36 127.411 33.3 127.765 33.18C128.118 33.0533 128.408 32.8833 128.635 32.67C128.861 32.45 129.028 32.1933 129.135 31.9C129.241 31.6067 129.295 31.2867 129.295 30.94C129.295 30.2533 129.065 29.72 128.605 29.34C128.151 28.96 127.458 28.77 126.525 28.77H124.965V33.36H126.505ZM133.535 41H130.825C130.318 41 129.951 40.8067 129.725 40.42L126.965 35.97C126.851 35.7967 126.725 35.67 126.585 35.59C126.451 35.51 126.251 35.47 125.985 35.47H124.965V41H121.965V26.49H126.525C127.538 26.49 128.405 26.5967 129.125 26.81C129.845 27.0167 130.435 27.3067 130.895 27.68C131.355 28.0533 131.691 28.5 131.905 29.02C132.118 29.5333 132.225 30.1 132.225 30.72C132.225 31.2 132.155 31.6567 132.015 32.09C131.881 32.5167 131.685 32.9067 131.425 33.26C131.165 33.6133 130.845 33.9267 130.465 34.2C130.085 34.4733 129.651 34.6933 129.165 34.86C129.358 34.9667 129.538 35.0967 129.705 35.25C129.871 35.3967 130.021 35.5733 130.155 35.78L133.535 41ZM144.813 35.49L143.243 31.05C143.149 30.8167 143.049 30.5433 142.943 30.23C142.843 29.9167 142.746 29.5767 142.653 29.21C142.559 29.5833 142.459 29.93 142.353 30.25C142.253 30.5633 142.156 30.8367 142.063 31.07L140.503 35.49H144.813ZM149.853 41H147.523C147.263 41 147.049 40.94 146.883 40.82C146.723 40.6933 146.603 40.5333 146.523 40.34L145.543 37.57H139.763L138.783 40.34C138.716 40.5067 138.599 40.66 138.433 40.8C138.266 40.9333 138.056 41 137.803 41H135.453L141.123 26.49H144.193L149.853 41ZM157.936 33.36C158.422 33.36 158.842 33.3 159.196 33.18C159.549 33.0533 159.839 32.8833 160.066 32.67C160.292 32.45 160.459 32.1933 160.566 31.9C160.672 31.6067 160.726 31.2867 160.726 30.94C160.726 30.2533 160.496 29.72 160.036 29.34C159.582 28.96 158.889 28.77 157.956 28.77H156.396V33.36H157.936ZM164.966 41H162.256C161.749 41 161.382 40.8067 161.156 40.42L158.396 35.97C158.282 35.7967 158.156 35.67 158.016 35.59C157.882 35.51 157.682 35.47 157.416 35.47H156.396V41H153.396V26.49H157.956C158.969 26.49 159.836 26.5967 160.556 26.81C161.276 27.0167 161.866 27.3067 162.326 27.68C162.786 28.0533 163.122 28.5 163.336 29.02C163.549 29.5333 163.656 30.1 163.656 30.72C163.656 31.2 163.586 31.6567 163.446 32.09C163.312 32.5167 163.116 32.9067 162.856 33.26C162.596 33.6133 162.276 33.9267 161.896 34.2C161.516 34.4733 161.082 34.6933 160.596 34.86C160.789 34.9667 160.969 35.0967 161.136 35.25C161.302 35.3967 161.452 35.5733 161.586 35.78L164.966 41Z" fill="white"/>
<path d="M62.82 37.61L63.5497 36.9262L63.547 36.9234L62.82 37.61ZM64.01 38.88L64.7963 39.4978L65.3267 38.8227L64.7397 38.1962L64.01 38.88ZM61.82 40.58L61.4152 39.6656L61.4126 39.6668L61.82 40.58ZM55.79 40.61L55.3944 41.5284L55.4004 41.531L55.79 40.61ZM53.58 39.06L54.3162 38.3833L54.3162 38.3833L53.58 39.06ZM52.18 36.71L53.1208 36.371L53.1208 36.371L52.18 36.71ZM51.92 31.69L50.9487 31.4521L50.947 31.4593L51.92 31.69ZM52.61 29.89L53.4867 30.3711L53.4867 30.3711L52.61 29.89ZM53.69 28.41L52.9721 27.7138L52.9666 27.7195L53.69 28.41ZM55.13 27.29L55.6285 28.1569L55.6365 28.1522L55.13 27.29ZM56.87 26.58L57.1174 27.5489L57.1245 27.5471L56.87 26.58ZM60.4 26.47L60.2065 27.4511L60.2091 27.4516L60.4 26.47ZM61.74 26.86L61.366 27.7874L61.366 27.7874L61.74 26.86ZM62.88 27.47L62.3108 28.2922L62.3198 28.2984L62.3289 28.3045L62.88 27.47ZM63.83 28.24L64.637 28.8306L65.1432 28.139L64.5371 27.5329L63.83 28.24ZM62.82 29.62L62.013 29.0294L62.0053 29.04L61.9978 29.0508L62.82 29.62ZM62.59 29.85L62.0088 29.0363L62.0088 29.0363L62.59 29.85ZM61.72 29.78L61.142 30.596L61.1498 30.6015L61.1577 30.6069L61.72 29.78ZM61.12 29.4L60.6055 30.2576L60.6161 30.2638L61.12 29.4ZM60.23 29.02L59.9246 29.9722L59.9297 29.9738L60.23 29.02ZM57.21 29.18L57.6083 30.0973L57.6083 30.0973L57.21 29.18ZM55.9 30.14L55.1467 29.4823L55.1459 29.4832L55.9 30.14ZM55.06 31.67L56.0097 31.9831L56.0097 31.9831L55.06 31.67ZM55.08 35.83L54.1354 36.1585L54.1399 36.1709L55.08 35.83ZM55.97 37.37L55.2226 38.0344L55.2285 38.0409L55.97 37.37ZM57.29 38.33L56.8873 39.2453L56.8946 39.2485L56.9019 39.2516L57.29 38.33ZM59.83 38.6L59.7118 37.607L59.7089 37.6074L59.83 38.6ZM60.6 38.43L60.2838 37.4813L60.2757 37.4841L60.6 38.43ZM61.27 38.12L60.7594 37.2601L60.7474 37.2674L61.27 38.12ZM61.91 37.64L61.2768 36.866L61.2572 36.882L61.2385 36.899L61.91 37.64ZM62.14 37.49L62.5872 38.3844L62.5872 38.3844L62.14 37.49ZM62.4 38.43C62.3608 38.43 62.3019 38.4223 62.2361 38.3941C62.1701 38.3659 62.1223 38.3277 62.093 38.2966L63.547 36.9234C63.2427 36.6012 62.8388 36.43 62.4 36.43V38.43ZM62.0903 38.2938L63.2803 39.5638L64.7397 38.1962L63.5497 36.9262L62.0903 38.2938ZM63.2237 38.2622C62.7386 38.8795 62.1399 39.3447 61.4152 39.6656L62.2248 41.4944C63.2468 41.0419 64.108 40.3738 64.7963 39.4978L63.2237 38.2622ZM61.4126 39.6668C60.7033 39.9832 59.8155 40.16 58.72 40.16V42.16C60.0245 42.16 61.2034 41.9501 62.2274 41.4932L61.4126 39.6668ZM58.72 40.16C57.7467 40.16 56.9054 39.9961 56.1796 39.689L55.4004 41.531C56.4079 41.9572 57.52 42.16 58.72 42.16V40.16ZM56.1856 39.6916C55.4413 39.371 54.8226 38.9342 54.3162 38.3833L52.8438 39.7367C53.5507 40.5058 54.4054 41.1024 55.3944 41.5284L56.1856 39.6916ZM54.3162 38.3833C53.8061 37.8283 53.4058 37.1621 53.1208 36.371L51.2392 37.049C51.6075 38.0712 52.1406 38.9717 52.8438 39.7367L54.3162 38.3833ZM53.1208 36.371C52.8375 35.5847 52.69 34.7108 52.69 33.74H50.69C50.69 34.9158 50.8692 36.0219 51.2392 37.049L53.1208 36.371ZM52.69 33.74C52.69 33.0913 52.759 32.4858 52.893 31.9207L50.947 31.4593C50.7743 32.1875 50.69 32.9487 50.69 33.74H52.69ZM52.8913 31.9279C53.0321 31.3528 53.2319 30.8354 53.4867 30.3711L51.7333 29.4089C51.3881 30.0379 51.1279 30.7206 50.9487 31.4521L52.8913 31.9279ZM53.4867 30.3711C53.7459 29.8987 54.0548 29.4761 54.4134 29.1005L52.9666 27.7195C52.4852 28.2239 52.0741 28.788 51.7333 29.4089L53.4867 30.3711ZM54.4079 29.1061C54.7695 28.7333 55.1756 28.4173 55.6285 28.1569L54.6315 26.4231C54.0178 26.776 53.4638 27.2067 52.9721 27.7139L54.4079 29.1061ZM55.6365 28.1522C56.0853 27.8886 56.5775 27.6868 57.1174 27.5489L56.6226 25.6111C55.9091 25.7932 55.2414 26.0648 54.6235 26.4278L55.6365 28.1522ZM57.1245 27.5471C57.6677 27.4041 58.255 27.33 58.89 27.33V25.33C58.0984 25.33 57.3389 25.4225 56.6155 25.6129L57.1245 27.5471ZM58.89 27.33C59.3651 27.33 59.8032 27.3716 60.2065 27.4511L60.5935 25.4889C60.0501 25.3818 59.4816 25.33 58.89 25.33V27.33ZM60.2091 27.4516C60.6325 27.5339 61.0173 27.6468 61.366 27.7874L62.114 25.9326C61.6361 25.7399 61.1275 25.5927 60.5909 25.4884L60.2091 27.4516ZM61.366 27.7874C61.7145 27.9279 62.0285 28.0967 62.3108 28.2922L63.4492 26.6478C63.0382 26.3633 62.5922 26.1254 62.114 25.9326L61.366 27.7874ZM62.3289 28.3045C62.63 28.5033 62.8936 28.7179 63.1229 28.9471L64.5371 27.5329C64.2064 27.2021 63.8367 26.9034 63.4311 26.6355L62.3289 28.3045ZM63.023 27.6494L62.013 29.0294L63.627 30.2106L64.637 28.8306L63.023 27.6494ZM61.9978 29.0508C62.0029 29.0434 62.0075 29.0383 62.0104 29.0354C62.0132 29.0326 62.0132 29.0331 62.0088 29.0363L63.1712 30.6637C63.3501 30.536 63.511 30.3787 63.6422 30.1892L61.9978 29.0508ZM62.0088 29.0363C62.1402 28.9424 62.2416 28.95 62.21 28.95V30.95C62.4984 30.95 62.8531 30.891 63.1712 30.6637L62.0088 29.0363ZM62.21 28.95C62.2502 28.95 62.28 28.9575 62.2953 28.9627C62.309 28.9675 62.3047 28.9683 62.2823 28.9531L61.1577 30.6069C61.4471 30.8037 61.803 30.95 62.21 30.95V28.95ZM62.298 28.964C62.1064 28.8283 61.8797 28.6855 61.6239 28.5362L60.6161 30.2638C60.8403 30.3945 61.0136 30.5051 61.142 30.596L62.298 28.964ZM61.6345 28.5425C61.3135 28.3499 60.9387 28.1947 60.5303 28.0661L59.9297 29.9738C60.2413 30.0719 60.4598 30.1701 60.6055 30.2575L61.6345 28.5425ZM60.5354 28.0678C60.0486 27.9116 59.4861 27.85 58.88 27.85V29.85C59.3672 29.85 59.7047 29.9017 59.9246 29.9722L60.5354 28.0678ZM58.88 27.85C58.1499 27.85 57.4559 27.983 56.8117 28.2627L57.6083 30.0973C57.9774 29.937 58.3968 29.85 58.88 29.85V27.85ZM56.8117 28.2627C56.1676 28.5424 55.61 28.9516 55.1467 29.4823L56.6533 30.7977C56.9233 30.4884 57.2391 30.2576 57.6083 30.0973L56.8117 28.2627ZM55.1459 29.4832C54.6852 30.0121 54.3452 30.6445 54.1103 31.3569L56.0097 31.9831C56.1748 31.4822 56.3948 31.0945 56.6541 30.7968L55.1459 29.4832ZM54.1103 31.3569C53.8708 32.0833 53.76 32.8819 53.76 33.74H55.76C55.76 33.0514 55.8492 32.47 56.0097 31.9831L54.1103 31.3569ZM53.76 33.74C53.76 34.61 53.8789 35.4207 54.1355 36.1585L56.0245 35.5015C55.8545 35.0126 55.76 34.43 55.76 33.74H53.76ZM54.1399 36.1709C54.3967 36.8791 54.7536 37.5068 55.2226 38.0344L56.7174 36.7056C56.4397 36.3932 56.2033 35.9942 56.0201 35.4891L54.1399 36.1709ZM55.2285 38.0409C55.6994 38.5614 56.2536 38.9665 56.8873 39.2453L57.6927 37.4147C57.3264 37.2535 57.0006 37.0186 56.7115 36.6991L55.2285 38.0409ZM56.9019 39.2516C57.5367 39.5189 58.2092 39.65 58.91 39.65V37.65C58.4641 37.65 58.0566 37.5678 57.6781 37.4084L56.9019 39.2516ZM58.91 39.65C59.2815 39.65 59.6295 39.6319 59.9511 39.5926L59.7089 37.6074C59.4838 37.6348 59.2185 37.65 58.91 37.65V39.65ZM59.9482 39.593C60.2886 39.5525 60.6154 39.4819 60.9243 39.3759L60.2757 37.4841C60.1179 37.5381 59.9314 37.5809 59.7118 37.607L59.9482 39.593ZM60.9162 39.3787C61.2253 39.2757 61.5182 39.1407 61.7926 38.9726L60.7474 37.2674C60.6084 37.3526 60.4547 37.4243 60.2838 37.4813L60.9162 39.3787ZM61.7805 38.9799C62.0597 38.8141 62.3263 38.6123 62.5815 38.381L61.2385 36.899C61.067 37.0544 60.907 37.1725 60.7595 37.2601L61.7805 38.9799ZM62.5432 38.414C62.5626 38.3981 62.5773 38.3894 62.5872 38.3844L61.6928 36.5956C61.5427 36.6706 61.4041 36.7619 61.2768 36.866L62.5432 38.414ZM62.5872 38.3844C62.5223 38.4169 62.455 38.43 62.4 38.43V36.43C62.1584 36.43 61.9177 36.4831 61.6928 36.5956L62.5872 38.3844ZM81.0711 36.69L80.1417 36.321L80.1393 36.3269L81.0711 36.69ZM79.5611 39.04L78.8504 38.3365L78.8468 38.3401L79.5611 39.04ZM77.2211 40.6L77.5995 41.5257L77.6052 41.5233L77.2211 40.6ZM71.1411 40.6L70.7569 41.5233L70.7627 41.5257L71.1411 40.6ZM68.7911 39.04L69.5018 38.3365L69.5018 38.3365L68.7911 39.04ZM67.2711 36.69L66.3393 37.0531L66.3417 37.059L67.2711 36.69ZM67.2711 30.8L66.3417 30.431L66.3403 30.4346L67.2711 30.8ZM68.7911 28.45L68.0804 27.7465L68.0804 27.7465L68.7911 28.45ZM71.1411 26.9L71.5195 27.8257L71.5252 27.8233L71.1411 26.9ZM77.2211 26.9L76.8369 27.8233L76.8427 27.8257L77.2211 26.9ZM79.5611 28.46L78.8433 29.1563L78.8504 29.1635L79.5611 28.46ZM81.0711 30.81L80.1393 31.1731L80.1426 31.1814L81.0711 30.81ZM78.2411 31.7L77.2914 32.0131L77.2924 32.0162L78.2411 31.7ZM77.3711 30.16L76.6185 30.8185L76.624 30.8248L76.6296 30.8309L77.3711 30.16ZM76.0011 29.19L75.61 30.1103L75.6169 30.1133L75.6238 30.1161L76.0011 29.19ZM72.3511 29.19L72.7284 30.1161L72.7381 30.1121L72.3511 29.19ZM70.9711 30.16L70.2243 29.4949L70.2237 29.4956L70.9711 30.16ZM70.1111 31.7L71.0598 32.0162L71.0608 32.0131L70.1111 31.7ZM70.1111 35.8L69.1614 36.1131L69.1624 36.1162L70.1111 35.8ZM70.9711 37.33L70.2237 37.9944L70.2296 38.0009L70.9711 37.33ZM72.3511 38.3L71.964 39.2221L71.9738 39.2261L72.3511 38.3ZM76.0011 38.3L76.3824 39.2245L76.3881 39.2221L76.0011 38.3ZM77.3711 37.33L76.6295 36.6591L76.6237 36.6656L77.3711 37.33ZM78.2411 35.8L79.1898 36.1162L79.1908 36.1131L78.2411 35.8ZM80.6111 33.74C80.6111 34.6846 80.4512 35.5416 80.1417 36.321L82.0005 37.059C82.411 36.0251 82.6111 34.9154 82.6111 33.74H80.6111ZM80.1393 36.3269C79.8332 37.1124 79.403 37.7783 78.8504 38.3365L80.2718 39.7435C81.0259 38.9817 81.6023 38.0809 82.0028 37.0531L80.1393 36.3269ZM78.8468 38.3401C78.3006 38.8976 77.6352 39.3446 76.837 39.6767L77.6052 41.5233C78.6336 41.0954 79.5283 40.5024 80.2754 39.7399L78.8468 38.3401ZM76.8427 39.6743C76.064 39.9927 75.1813 40.16 74.1811 40.16V42.16C75.4076 42.16 76.5516 41.954 77.5995 41.5257L76.8427 39.6743ZM74.1811 40.16C73.1809 40.16 72.2982 39.9927 71.5195 39.6743L70.7627 41.5257C71.8106 41.954 72.9546 42.16 74.1811 42.16V40.16ZM71.5252 39.6767C70.7261 39.3443 70.0559 38.8963 69.5018 38.3365L68.0804 39.7435C68.8329 40.5037 69.7294 41.0957 70.757 41.5233L71.5252 39.6767ZM69.5018 38.3365C68.9479 37.7769 68.5134 37.109 68.2005 36.321L66.3417 37.059C66.7488 38.0843 67.3277 38.9831 68.0804 39.7435L69.5018 38.3365ZM68.2028 36.3269C67.8985 35.5459 67.7411 34.6869 67.7411 33.74H65.7411C65.7411 34.9131 65.937 36.0208 66.3393 37.0531L68.2028 36.3269ZM67.7411 33.74C67.7411 32.793 67.8985 31.9383 68.2019 31.1654L66.3403 30.4346C65.937 31.4617 65.7411 32.567 65.7411 33.74H67.7411ZM68.2005 31.169C68.5134 30.381 68.9479 29.7131 69.5018 29.1535L68.0804 27.7465C67.3277 28.5069 66.7488 29.4056 66.3417 30.431L68.2005 31.169ZM69.5018 29.1535C70.0546 28.5951 70.7228 28.1513 71.5195 27.8257L70.7627 25.9743C69.7327 26.3954 68.8343 26.9849 68.0804 27.7465L69.5018 29.1535ZM71.5252 27.8233C72.3025 27.4999 73.1831 27.33 74.1811 27.33V25.33C72.9524 25.33 71.8064 25.5401 70.757 25.9767L71.5252 27.8233ZM74.1811 27.33C75.1791 27.33 76.0597 27.4999 76.837 27.8233L77.6052 25.9767C76.5558 25.5401 75.4098 25.33 74.1811 25.33V27.33ZM76.8427 27.8257C77.6364 28.1501 78.2986 28.5948 78.8433 29.1563L80.2789 27.7637C79.5302 26.9919 78.6325 26.3966 77.5995 25.9743L76.8427 27.8257ZM78.8504 29.1635C79.403 29.7217 79.8332 30.3876 80.1393 31.1731L82.0028 30.4469C81.6023 29.4191 81.0259 28.5183 80.2718 27.7565L78.8504 29.1635ZM80.1426 31.1814C80.4514 31.9534 80.6111 32.8028 80.6111 33.74H82.6111C82.6111 32.5705 82.4108 31.4666 81.9996 30.4386L80.1426 31.1814ZM79.5411 33.74C79.5411 32.8935 79.4298 32.1039 79.1898 31.3838L77.2924 32.0162C77.4524 32.4961 77.5411 33.0665 77.5411 33.74H79.5411ZM79.1908 31.3869C78.9527 30.6647 78.5975 30.025 78.1126 29.4891L76.6296 30.8309C76.9047 31.135 77.1295 31.522 77.2914 32.0131L79.1908 31.3869ZM78.1237 29.5015C77.6448 28.9542 77.0584 28.5409 76.3784 28.2639L75.6238 30.1161C76.0238 30.2791 76.3507 30.5124 76.6185 30.8185L78.1237 29.5015ZM76.3922 28.2697C75.7157 27.9821 74.9725 27.85 74.1811 27.85V29.85C74.7497 29.85 75.2199 29.9445 75.61 30.1103L76.3922 28.2697ZM74.1811 27.85C73.3894 27.85 72.6447 27.9822 71.9641 28.2679L72.7381 30.1121C73.1375 29.9444 73.6128 29.85 74.1811 29.85V27.85ZM71.9738 28.2639C71.2953 28.5403 70.7081 28.9518 70.2243 29.4949L71.7179 30.8251C71.9941 30.5149 72.3269 30.2797 72.7284 30.1161L71.9738 28.2639ZM70.2237 29.4956C69.748 30.0307 69.3983 30.6682 69.1614 31.3869L71.0608 32.0131C71.2239 31.5184 71.4475 31.1293 71.7185 30.8244L70.2237 29.4956ZM69.1624 31.3838C68.9224 32.1039 68.8111 32.8935 68.8111 33.74H70.8111C70.8111 33.0665 70.8998 32.4961 71.0598 32.0162L69.1624 31.3838ZM68.8111 33.74C68.8111 34.5924 68.9222 35.3875 69.1614 36.1131L71.0608 35.4869C70.9 34.9991 70.8111 34.4209 70.8111 33.74H68.8111ZM69.1624 36.1162C69.3999 36.8286 69.7497 37.4612 70.2237 37.9944L71.7185 36.6656C71.4458 36.3588 71.2223 35.9714 71.0598 35.4838L69.1624 36.1162ZM70.2296 38.0009C70.7113 38.5333 71.2936 38.9407 71.9641 39.2221L72.7381 37.3779C72.3286 37.206 71.9909 36.9667 71.7126 36.6591L70.2296 38.0009ZM71.9738 39.2261C72.6518 39.5023 73.3929 39.63 74.1811 39.63V37.63C73.6093 37.63 73.1304 37.5377 72.7284 37.3739L71.9738 39.2261ZM74.1811 39.63C74.9689 39.63 75.7086 39.5024 76.3824 39.2244L75.6198 37.3756C75.227 37.5376 74.7533 37.63 74.1811 37.63V39.63ZM76.3881 39.2221C77.06 38.94 77.6416 38.5309 78.1185 37.9944L76.6237 36.6656C76.3539 36.9691 76.0222 37.2066 75.6141 37.3779L76.3881 39.2221ZM78.1126 38.0009C78.5958 37.4669 78.9511 36.8322 79.1898 36.1162L77.2924 35.4838C77.1311 35.9678 76.9064 36.3531 76.6296 36.6591L78.1126 38.0009ZM79.1908 36.1131C79.43 35.3875 79.5411 34.5924 79.5411 33.74H77.5411C77.5411 34.4209 77.4522 34.9991 77.2914 35.4869L79.1908 36.1131ZM102.002 26.49H103.002V25.49H102.002V26.49ZM102.002 41V42H103.002V41H102.002ZM99.352 41H98.352V42H99.352V41ZM99.362 31.49L98.364 31.4276L98.363 31.4432L98.3625 31.4588L99.362 31.49ZM99.422 30.84L100.415 30.9603L98.5375 30.3736L99.422 30.84ZM95.272 38.71L94.3875 38.2436L94.3859 38.2465L95.272 38.71ZM93.182 39.2L92.6492 40.0462L92.6606 40.0534L92.6722 40.0603L93.182 39.2ZM92.752 38.71L93.6465 38.2628L93.6415 38.2529L93.6364 38.2432L92.752 38.71ZM88.582 30.81L89.4664 30.3432L87.5857 30.8954L88.582 30.81ZM88.632 31.49L87.6339 31.5505L87.634 31.5524L88.632 31.49ZM88.652 41V42H89.652V41H88.652ZM86.002 41H85.002V42H86.002V41ZM86.002 26.49V25.49H85.002V26.49H86.002ZM88.622 26.5L88.5555 27.4978L88.5555 27.4978L88.622 26.5ZM88.882 26.56L88.4682 27.4704L88.516 27.4921L88.5658 27.5087L88.882 26.56ZM89.092 26.7L88.3487 27.369L88.3839 27.4081L88.4231 27.4433L89.092 26.7ZM89.282 26.96L90.1676 26.4955L90.1658 26.4921L89.282 26.96ZM93.342 34.7L92.4565 35.1645L92.4598 35.1708L92.4632 35.1771L93.342 34.7ZM93.692 35.42L92.7742 35.8169L92.7787 35.8273L92.7834 35.8375L93.692 35.42ZM94.012 36.18L93.0787 36.539L94.0239 38.9964L94.9484 36.5311L94.012 36.18ZM94.322 35.4L93.4092 34.9916L93.4047 35.0017L93.4004 35.0119L94.322 35.4ZM94.682 34.67L95.5609 35.1471L95.5646 35.1402L95.5683 35.1332L94.682 34.67ZM98.712 26.96L97.8282 26.4921L97.8258 26.4968L98.712 26.96ZM98.902 26.7L99.571 27.4433L99.5905 27.4257L99.6091 27.4071L98.902 26.7ZM99.112 26.56L99.4538 27.4998L99.4754 27.4919L99.4966 27.4831L99.112 26.56ZM99.372 26.5L99.3055 25.5022L99.3008 25.5025L99.372 26.5ZM101.002 26.49V41H103.002V26.49H101.002ZM102.002 40H99.352V42H102.002V40ZM100.352 41V32.09H98.352V41H100.352ZM100.352 32.09C100.352 31.9151 100.355 31.7256 100.362 31.5212L98.3625 31.4588C98.3556 31.6811 98.352 31.8916 98.352 32.09H100.352ZM100.36 31.5524C100.372 31.3591 100.39 31.1618 100.415 30.9603L98.4293 30.7197C98.4004 30.9582 98.3786 31.1942 98.364 31.4276L100.36 31.5524ZM98.5375 30.3736L94.3875 38.2436L96.1566 39.1764L100.307 31.3064L98.5375 30.3736ZM94.3859 38.2465C94.3623 38.2916 94.3427 38.3174 94.3309 38.3307C94.3196 38.3434 94.3136 38.3469 94.3132 38.3472C94.3129 38.3474 94.3097 38.3496 94.2994 38.3523C94.2882 38.3552 94.2639 38.36 94.222 38.36V40.36C94.6162 40.36 95.0102 40.2679 95.3659 40.0478C95.7198 39.8287 95.9774 39.5189 96.1581 39.1735L94.3859 38.2465ZM94.222 38.36H93.802V40.36H94.222V38.36ZM93.802 38.36C93.7269 38.36 93.7002 38.3447 93.6918 38.3397L92.6722 40.0603C93.0238 40.2686 93.4105 40.36 93.802 40.36V38.36ZM93.7148 38.3538C93.7078 38.3493 93.6815 38.3329 93.6465 38.2628L91.8576 39.1572C92.0359 39.5138 92.2963 39.824 92.6492 40.0462L93.7148 38.3538ZM93.6364 38.2432L89.4664 30.3432L87.6977 31.2768L91.8677 39.1768L93.6364 38.2432ZM87.5857 30.8954C87.605 31.121 87.6211 31.3393 87.6339 31.5505L89.6302 31.4295C89.6163 31.2007 89.599 30.9657 89.5784 30.7246L87.5857 30.8954ZM87.634 31.5524C87.6462 31.7479 87.652 31.9269 87.652 32.09H89.652C89.652 31.8798 89.6445 31.6588 89.6301 31.4276L87.634 31.5524ZM87.652 32.09V41H89.652V32.09H87.652ZM88.652 40H86.002V42H88.652V40ZM87.002 41V26.49H85.002V41H87.002ZM86.002 27.49H88.282V25.49H86.002V27.49ZM88.282 27.49C88.392 27.49 88.4825 27.4929 88.5555 27.4978L88.6886 25.5022C88.5615 25.4937 88.4254 25.49 88.282 25.49V27.49ZM88.5555 27.4978C88.5637 27.4983 88.5276 27.4973 88.4682 27.4704L89.2958 25.6496C89.0898 25.556 88.8804 25.515 88.6885 25.5022L88.5555 27.4978ZM88.5658 27.5087C88.4712 27.4771 88.3969 27.4224 88.3487 27.369L89.8353 26.031C89.6672 25.8442 89.4529 25.6962 89.1983 25.6113L88.5658 27.5087ZM88.4231 27.4433C88.3962 27.4191 88.3835 27.4019 88.3821 27.4C88.3806 27.3979 88.3866 27.4058 88.3982 27.4279L90.1658 26.4921C90.0725 26.3159 89.9436 26.1211 89.761 25.9567L88.4231 27.4433ZM88.3965 27.4245L92.4565 35.1645L94.2276 34.2355L90.1676 26.4955L88.3965 27.4245ZM92.4632 35.1771C92.5755 35.384 92.6792 35.5972 92.7742 35.8169L94.6099 35.0231C94.4916 34.7495 94.3619 34.4827 94.2209 34.2229L92.4632 35.1771ZM92.7834 35.8375C92.8876 36.0644 92.9861 36.2982 93.0787 36.539L94.9454 35.821C94.838 35.5418 94.7231 35.2689 94.6007 35.0025L92.7834 35.8375ZM94.9484 36.5311C95.0439 36.2764 95.1423 36.0287 95.2437 35.7881L93.4004 35.0119C93.2884 35.2779 93.1802 35.5502 93.0757 35.8289L94.9484 36.5311ZM95.2349 35.8084C95.3382 35.5773 95.447 35.357 95.5609 35.1471L93.8032 34.1929C93.6638 34.4497 93.5325 34.716 93.4092 34.9916L95.2349 35.8084ZM95.5683 35.1332L99.5983 27.4232L97.8258 26.4968L93.7958 34.2068L95.5683 35.1332ZM99.5958 27.4279C99.6075 27.4058 99.6135 27.3979 99.6119 27.4C99.6105 27.4019 99.5978 27.4191 99.571 27.4433L98.2331 25.9567C98.0504 26.1211 97.9215 26.3159 97.8282 26.4921L99.5958 27.4279ZM99.6091 27.4071C99.5936 27.4226 99.5434 27.4672 99.4538 27.4998L98.7703 25.6202C98.534 25.7061 98.3438 25.8441 98.1949 25.9929L99.6091 27.4071ZM99.4966 27.4831C99.4693 27.4945 99.4491 27.497 99.4433 27.4975L99.3008 25.5025C99.1083 25.5163 98.9148 25.5588 98.7274 25.6369L99.4966 27.4831ZM99.4386 27.4978C99.5106 27.493 99.6041 27.49 99.722 27.49V25.49C99.5733 25.49 99.4335 25.4937 99.3055 25.5022L99.4386 27.4978ZM99.722 27.49H102.002V25.49H99.722V27.49ZM114.185 33.03L113.468 32.3335L113.463 32.339L114.185 33.03ZM114.675 30.19L113.733 30.525L113.738 30.5378L113.743 30.5504L114.675 30.19ZM114.175 29.43L113.479 30.1479L113.49 30.1586L113.502 30.169L114.175 29.43ZM113.335 28.94L113.652 27.9913L113.652 27.9913L113.335 28.94ZM110.225 28.77V27.77H109.225V28.77H110.225ZM110.225 33.71H109.225V34.71H110.225V33.71ZM114.695 26.84L114.387 27.7913L114.39 27.7921L114.695 26.84ZM116.485 27.82L115.816 28.5633L115.822 28.5686L116.485 27.82ZM117.515 29.3L116.582 29.6583L116.586 29.6677L117.515 29.3ZM117.505 33.13L116.575 32.764L116.575 32.764L117.505 33.13ZM116.445 34.66L115.776 33.9172L115.776 33.9172L116.445 34.66ZM114.655 35.66L114.964 36.6113L114.972 36.6087L114.655 35.66ZM110.225 36.01V35.01H109.225V36.01H110.225ZM110.225 41V42H111.225V41H110.225ZM107.225 41H106.225V42H107.225V41ZM107.225 26.49V25.49H106.225V26.49H107.225ZM112.125 34.71C113.203 34.71 114.21 34.4519 114.908 33.721L113.463 32.339C113.295 32.5147 112.928 32.71 112.125 32.71V34.71ZM114.903 33.7265C115.566 33.0433 115.845 32.1496 115.845 31.17H113.845C113.845 31.7637 113.685 32.11 113.468 32.3335L114.903 33.7265ZM115.845 31.17C115.845 30.7044 115.772 30.2533 115.608 29.8296L113.743 30.5504C113.806 30.7134 113.845 30.9156 113.845 31.17H115.845ZM115.618 29.855C115.458 29.4064 115.202 29.0126 114.849 28.691L113.502 30.169C113.602 30.2608 113.679 30.3736 113.733 30.525L115.618 29.855ZM114.872 28.7121C114.527 28.378 114.11 28.1441 113.652 27.9913L113.019 29.8887C113.241 29.9626 113.384 30.0553 113.479 30.1479L114.872 28.7121ZM113.652 27.9913C113.184 27.8355 112.669 27.77 112.125 27.77V29.77C112.515 29.77 112.807 29.8178 113.019 29.8887L113.652 27.9913ZM112.125 27.77H110.225V29.77H112.125V27.77ZM109.225 28.77V33.71H111.225V28.77H109.225ZM110.225 34.71H112.125V32.71H110.225V34.71ZM112.125 27.49C113.045 27.49 113.792 27.5985 114.387 27.7913L115.004 25.8887C114.159 25.6148 113.193 25.49 112.125 25.49V27.49ZM114.39 27.7921C115.01 27.9914 115.475 28.2559 115.817 28.5633L117.154 27.0767C116.563 26.5441 115.834 26.1553 115.001 25.8879L114.39 27.7921ZM115.822 28.5686C116.171 28.8771 116.42 29.2372 116.582 29.6583L118.449 28.9417C118.171 28.2161 117.734 27.5896 117.149 27.0714L115.822 28.5686ZM116.586 29.6677C116.762 30.1136 116.855 30.6109 116.855 31.17H118.855C118.855 30.3824 118.722 29.6331 118.445 28.9323L116.586 29.6677ZM116.855 31.17C116.855 31.7729 116.757 32.3003 116.575 32.764L118.436 33.496C118.72 32.773 118.855 31.9938 118.855 31.17H116.855ZM116.575 32.764C116.398 33.2133 116.134 33.5943 115.776 33.9172L117.115 35.4028C117.703 34.8724 118.146 34.2334 118.436 33.496L116.575 32.764ZM115.776 33.9172C115.423 34.2358 114.953 34.5067 114.339 34.7113L114.972 36.6087C115.798 36.3333 116.522 35.9376 117.115 35.4028L115.776 33.9172ZM114.347 34.7087C113.75 34.9023 113.015 35.01 112.125 35.01V37.01C113.169 37.01 114.121 36.8844 114.964 36.6113L114.347 34.7087ZM112.125 35.01H110.225V37.01H112.125V35.01ZM109.225 36.01V41H111.225V36.01H109.225ZM110.225 40H107.225V42H110.225V40ZM108.225 41V26.49H106.225V41H108.225ZM107.225 27.49H112.125V25.49H107.225V27.49ZM127.765 33.18L128.086 34.1269L128.094 34.1242L128.102 34.1213L127.765 33.18ZM128.635 32.67L129.32 33.3982L129.325 33.3929L129.331 33.3876L128.635 32.67ZM129.135 31.9L128.195 31.5583L128.195 31.5583L129.135 31.9ZM128.605 29.34L127.962 30.1064L127.968 30.111L128.605 29.34ZM124.965 28.77V27.77H123.965V28.77H124.965ZM124.965 33.36H123.965V34.36H124.965V33.36ZM133.535 41V42H135.373L134.374 40.4565L133.535 41ZM129.725 40.42L130.587 39.9143L130.581 39.9035L130.574 39.8929L129.725 40.42ZM126.965 35.97L127.814 35.4429L127.808 35.4328L127.802 35.4228L126.965 35.97ZM126.585 35.59L126.07 36.4475L126.079 36.453L126.088 36.4582L126.585 35.59ZM124.965 35.47V34.47H123.965V35.47H124.965ZM124.965 41V42H125.965V41H124.965ZM121.965 41H120.965V42H121.965V41ZM121.965 26.49V25.49H120.965V26.49H121.965ZM129.125 26.81L128.84 27.7688L128.849 27.7712L129.125 26.81ZM131.905 29.02L130.979 29.3996L130.981 29.4038L131.905 29.02ZM132.015 32.09L131.063 31.7826L131.06 31.7917L132.015 32.09ZM131.425 33.26L130.619 32.6673L130.619 32.6673L131.425 33.26ZM130.465 34.2L131.048 35.0118L131.048 35.0118L130.465 34.2ZM129.165 34.86L128.841 33.9139L126.705 34.6452L128.681 35.7356L129.165 34.86ZM129.705 35.25L129.027 35.9859L129.036 35.9934L129.044 36.0007L129.705 35.25ZM130.155 35.78L129.314 36.3221L129.315 36.3235L130.155 35.78ZM126.505 34.36C127.069 34.36 127.603 34.2909 128.086 34.1269L127.443 32.2331C127.219 32.3091 126.913 32.36 126.505 32.36V34.36ZM128.102 34.1213C128.559 33.9576 128.975 33.723 129.32 33.3982L127.949 31.9418C127.841 32.0436 127.677 32.149 127.427 32.2387L128.102 34.1213ZM129.331 33.3876C129.665 33.0636 129.915 32.6789 130.074 32.2417L128.195 31.5583C128.14 31.7078 128.058 31.8364 127.938 31.9524L129.331 33.3876ZM130.074 32.2417C130.225 31.8274 130.295 31.3904 130.295 30.94H128.295C128.295 31.1829 128.257 31.3859 128.195 31.5583L130.074 32.2417ZM130.295 30.94C130.295 30.0054 129.968 29.1689 129.241 28.569L127.968 30.111C128.161 30.2711 128.295 30.5012 128.295 30.94H130.295ZM129.247 28.5736C128.535 27.9769 127.565 27.77 126.525 27.77V29.77C127.351 29.77 127.767 29.9431 127.962 30.1064L129.247 28.5736ZM126.525 27.77H124.965V29.77H126.525V27.77ZM123.965 28.77V33.36H125.965V28.77H123.965ZM124.965 34.36H126.505V32.36H124.965V34.36ZM133.535 40H130.825V42H133.535V40ZM130.825 40C130.698 40 130.647 39.9762 130.636 39.9704C130.63 39.9671 130.625 39.9638 130.62 39.9587C130.614 39.9531 130.602 39.9403 130.587 39.9143L128.862 40.9257C129.294 41.6636 130.018 42 130.825 42V40ZM130.574 39.8929L127.814 35.4429L126.115 36.4971L128.875 40.9471L130.574 39.8929ZM127.802 35.4228C127.625 35.1535 127.392 34.8994 127.081 34.7218L126.088 36.4582C126.058 36.4406 126.077 36.4398 126.128 36.5172L127.802 35.4228ZM127.099 34.7325C126.735 34.5143 126.319 34.47 125.985 34.47V36.47C126.071 36.47 126.119 36.4767 126.138 36.4806C126.147 36.4823 126.144 36.4824 126.133 36.4784C126.122 36.4743 126.1 36.4652 126.07 36.4475L127.099 34.7325ZM125.985 34.47H124.965V36.47H125.985V34.47ZM123.965 35.47V41H125.965V35.47H123.965ZM124.965 40H121.965V42H124.965V40ZM122.965 41V26.49H120.965V41H122.965ZM121.965 27.49H126.525V25.49H121.965V27.49ZM126.525 27.49C127.473 27.49 128.238 27.5904 128.84 27.7688L129.409 25.8512C128.571 25.6029 127.603 25.49 126.525 25.49V27.49ZM128.849 27.7712C129.472 27.9502 129.933 28.1871 130.264 28.4565L131.525 26.9035C130.937 26.4262 130.217 26.0831 129.4 25.8488L128.849 27.7712ZM130.264 28.4565C130.602 28.7302 130.833 29.0429 130.979 29.3996L132.83 28.6404C132.549 27.9571 132.107 27.3765 131.525 26.9035L130.264 28.4565ZM130.981 29.4038C131.138 29.7822 131.225 30.2165 131.225 30.72H133.225C133.225 29.9835 133.097 29.2845 132.828 28.6362L130.981 29.4038ZM131.225 30.72C131.225 31.1013 131.169 31.4538 131.063 31.7826L132.966 32.3974C133.14 31.8595 133.225 31.2987 133.225 30.72H131.225ZM131.06 31.7917C130.959 32.1147 130.812 32.4049 130.619 32.6673L132.23 33.8527C132.557 33.4084 132.803 32.9186 132.969 32.3883L131.06 31.7917ZM130.619 32.6673C130.425 32.931 130.181 33.1718 129.881 33.3882L131.048 35.0118C131.508 34.6815 131.904 34.2957 132.23 33.8527L130.619 32.6673ZM129.881 33.3882C129.588 33.5989 129.244 33.7759 128.841 33.9139L129.489 35.8061C130.059 35.6107 130.581 35.3477 131.048 35.0118L129.881 33.3882ZM128.681 35.7356C128.803 35.8026 128.918 35.8853 129.027 35.9859L130.382 34.5141C130.158 34.308 129.913 34.1307 129.648 33.9844L128.681 35.7356ZM129.044 36.0007C129.134 36.0803 129.226 36.1847 129.314 36.3221L130.995 35.2379C130.817 34.962 130.608 34.713 130.365 34.4993L129.044 36.0007ZM129.315 36.3235L132.695 41.5435L134.374 40.4565L130.994 35.2365L129.315 36.3235ZM144.813 35.49V36.49H146.227L145.756 35.1566L144.813 35.49ZM143.243 31.05L144.186 30.7166L144.179 30.6975L144.171 30.6786L143.243 31.05ZM142.943 30.23L141.99 30.534L141.993 30.5432L141.996 30.5523L142.943 30.23ZM142.653 29.21L143.622 28.9633L141.683 28.9675L142.653 29.21ZM142.353 30.25L141.404 29.9337L141.4 29.946L142.353 30.25ZM142.063 31.07L141.134 30.6986L141.127 30.7177L141.12 30.7372L142.063 31.07ZM140.503 35.49L139.56 35.1572L139.089 36.49H140.503V35.49ZM149.853 41V42H151.316L150.784 40.6366L149.853 41ZM146.883 40.82L146.262 41.604L146.28 41.6182L146.299 41.6315L146.883 40.82ZM146.523 40.34L145.58 40.6735L145.589 40.6982L145.599 40.7224L146.523 40.34ZM145.543 37.57L146.486 37.2365L146.25 36.57H145.543V37.57ZM139.763 37.57V36.57H139.056L138.82 37.2365L139.763 37.57ZM138.783 40.34L139.711 40.7114L139.719 40.6926L139.726 40.6735L138.783 40.34ZM138.433 40.8L139.058 41.5809L139.067 41.5734L139.076 41.5657L138.433 40.8ZM135.453 41L134.521 40.636L133.988 42H135.453V41ZM141.123 26.49V25.49H140.44L140.191 26.126L141.123 26.49ZM144.193 26.49L145.124 26.1266L144.876 25.49H144.193V26.49ZM145.756 35.1566L144.186 30.7166L142.3 31.3834L143.87 35.8234L145.756 35.1566ZM144.171 30.6786C144.086 30.4656 143.992 30.2094 143.889 29.9077L141.996 30.5523C142.107 30.8773 142.213 31.1677 142.314 31.4214L144.171 30.6786ZM143.895 29.926C143.802 29.6341 143.711 29.3135 143.622 28.9633L141.684 29.4567C141.781 29.8398 141.883 30.1992 141.99 30.534L143.895 29.926ZM141.683 28.9675C141.595 29.3193 141.502 29.6411 141.404 29.9338L143.301 30.5662C143.417 30.2189 143.524 29.8473 143.623 29.4525L141.683 28.9675ZM141.4 29.946C141.305 30.2431 141.217 30.493 141.134 30.6986L142.991 31.4414C143.096 31.1804 143.2 30.8836 143.305 30.554L141.4 29.946ZM141.12 30.7372L139.56 35.1572L141.446 35.8228L143.006 31.4028L141.12 30.7372ZM140.503 36.49H144.813V34.49H140.503V36.49ZM149.853 40H147.523V42H149.853V40ZM147.523 40C147.469 40 147.443 39.9937 147.439 39.9923C147.436 39.9915 147.448 39.9949 147.467 40.0085L146.299 41.6315C146.676 41.9032 147.109 42 147.523 42V40ZM147.504 40.036C147.481 40.0179 147.463 39.9976 147.447 39.9576L145.599 40.7224C145.742 41.0691 145.965 41.3688 146.262 41.604L147.504 40.036ZM147.466 40.0065L146.486 37.2365L144.6 37.9035L145.58 40.6735L147.466 40.0065ZM145.543 36.57H139.763V38.57H145.543V36.57ZM138.82 37.2365L137.84 40.0065L139.726 40.6735L140.706 37.9035L138.82 37.2365ZM137.854 39.9686C137.861 39.9531 137.857 39.9779 137.79 40.0343L139.076 41.5657C139.342 41.3421 139.572 41.0603 139.711 40.7114L137.854 39.9686ZM137.808 40.0191C137.815 40.0136 137.823 40.0085 137.831 40.0043C137.839 40.0001 137.845 39.9978 137.848 39.9969C137.854 39.9949 137.842 40 137.803 40V42C138.239 42 138.682 41.8814 139.058 41.5809L137.808 40.0191ZM137.803 40H135.453V42H137.803V40ZM136.384 41.364L142.054 26.854L140.191 26.126L134.521 40.636L136.384 41.364ZM141.123 27.49H144.193V25.49H141.123V27.49ZM143.261 26.8534L148.921 41.3634L150.784 40.6366L145.124 26.1266L143.261 26.8534ZM159.196 33.18L159.517 34.1269L159.525 34.1242L159.533 34.1213L159.196 33.18ZM160.066 32.67L160.751 33.3982L160.757 33.3929L160.762 33.3876L160.066 32.67ZM160.566 31.9L159.626 31.5583L159.626 31.5583L160.566 31.9ZM160.036 29.34L159.393 30.1064L159.399 30.111L160.036 29.34ZM156.396 28.77V27.77H155.396V28.77H156.396ZM156.396 33.36H155.396V34.36H156.396V33.36ZM164.966 41V42H166.805L165.805 40.4565L164.966 41ZM161.156 40.42L162.018 39.9143L162.012 39.9035L162.006 39.8929L161.156 40.42ZM158.396 35.97L159.246 35.4429L159.239 35.4328L159.233 35.4228L158.396 35.97ZM158.016 35.59L157.501 36.4475L157.51 36.453L157.52 36.4582L158.016 35.59ZM156.396 35.47V34.47H155.396V35.47H156.396ZM156.396 41V42H157.396V41H156.396ZM153.396 41H152.396V42H153.396V41ZM153.396 26.49V25.49H152.396V26.49H153.396ZM160.556 26.81L160.272 27.7688L160.28 27.7712L160.556 26.81ZM163.336 29.02L162.411 29.3996L162.412 29.4038L163.336 29.02ZM163.446 32.09L162.494 31.7826L162.491 31.7917L163.446 32.09ZM162.856 33.26L162.05 32.6673L162.05 32.6673L162.856 33.26ZM161.896 34.2L162.48 35.0118L162.48 35.0118L161.896 34.2ZM160.596 34.86L160.272 33.9139L158.136 34.6452L160.113 35.7356L160.596 34.86ZM161.136 35.25L160.459 35.9859L160.467 35.9934L160.475 36.0007L161.136 35.25ZM161.586 35.78L160.745 36.3221L160.746 36.3235L161.586 35.78ZM157.936 34.36C158.5 34.36 159.034 34.2909 159.517 34.1269L158.874 32.2331C158.65 32.3091 158.344 32.36 157.936 32.36V34.36ZM159.533 34.1213C159.99 33.9576 160.406 33.723 160.751 33.3982L159.38 31.9418C159.272 32.0436 159.108 32.149 158.858 32.2387L159.533 34.1213ZM160.762 33.3876C161.096 33.0636 161.347 32.6789 161.506 32.2417L159.626 31.5583C159.572 31.7078 159.489 31.8364 159.369 31.9524L160.762 33.3876ZM161.506 32.2417C161.656 31.8274 161.726 31.3904 161.726 30.94H159.726C159.726 31.1829 159.689 31.3859 159.626 31.5583L161.506 32.2417ZM161.726 30.94C161.726 30.0054 161.399 29.1689 160.673 28.569L159.399 30.111C159.593 30.2711 159.726 30.5012 159.726 30.94H161.726ZM160.678 28.5736C159.966 27.9769 158.996 27.77 157.956 27.77V29.77C158.782 29.77 159.199 29.9431 159.393 30.1064L160.678 28.5736ZM157.956 27.77H156.396V29.77H157.956V27.77ZM155.396 28.77V33.36H157.396V28.77H155.396ZM156.396 34.36H157.936V32.36H156.396V34.36ZM164.966 40H162.256V42H164.966V40ZM162.256 40C162.129 40 162.078 39.9762 162.067 39.9704C162.061 39.9671 162.056 39.9638 162.051 39.9587C162.045 39.9531 162.034 39.9403 162.018 39.9143L160.293 40.9257C160.726 41.6636 161.45 42 162.256 42V40ZM162.006 39.8929L159.246 35.4429L157.546 36.4971L160.306 40.9471L162.006 39.8929ZM159.233 35.4228C159.057 35.1535 158.823 34.8994 158.512 34.7218L157.52 36.4582C157.489 36.4406 157.508 36.4398 157.559 36.5172L159.233 35.4228ZM158.53 34.7325C158.167 34.5143 157.75 34.47 157.416 34.47V36.47C157.502 36.47 157.55 36.4767 157.57 36.4806C157.578 36.4823 157.576 36.4824 157.565 36.4784C157.553 36.4743 157.531 36.4652 157.501 36.4475L158.53 34.7325ZM157.416 34.47H156.396V36.47H157.416V34.47ZM155.396 35.47V41H157.396V35.47H155.396ZM156.396 40H153.396V42H156.396V40ZM154.396 41V26.49H152.396V41H154.396ZM153.396 27.49H157.956V25.49H153.396V27.49ZM157.956 27.49C158.904 27.49 159.67 27.5904 160.272 27.7688L160.84 25.8512C160.002 25.6029 159.034 25.49 157.956 25.49V27.49ZM160.28 27.7712C160.904 27.9502 161.364 28.1871 161.696 28.4565L162.956 26.9035C162.368 26.4262 161.648 26.0831 160.832 25.8488L160.28 27.7712ZM161.696 28.4565C162.033 28.7302 162.264 29.0429 162.411 29.3996L164.261 28.6404C163.981 27.9571 163.539 27.3765 162.956 26.9035L161.696 28.4565ZM162.412 29.4038C162.57 29.7822 162.656 30.2165 162.656 30.72H164.656C164.656 29.9835 164.529 29.2845 164.259 28.6362L162.412 29.4038ZM162.656 30.72C162.656 31.1013 162.6 31.4538 162.494 31.7826L164.397 32.3974C164.571 31.8595 164.656 31.2987 164.656 30.72H162.656ZM162.491 31.7917C162.39 32.1147 162.243 32.4049 162.05 32.6673L163.661 33.8527C163.988 33.4084 164.235 32.9186 164.4 32.3883L162.491 31.7917ZM162.05 32.6673C161.856 32.931 161.613 33.1718 161.312 33.3882L162.48 35.0118C162.939 34.6815 163.335 34.2957 163.661 33.8527L162.05 32.6673ZM161.312 33.3882C161.019 33.5989 160.675 33.7759 160.272 33.9139L160.92 35.8061C161.49 35.6107 162.013 35.3477 162.48 35.0118L161.312 33.3882ZM160.113 35.7356C160.234 35.8026 160.349 35.8853 160.459 35.9859L161.813 34.5141C161.589 34.308 161.344 34.1307 161.079 33.9844L160.113 35.7356ZM160.475 36.0007C160.566 36.0803 160.657 36.1847 160.745 36.3221L162.426 35.2379C162.248 34.962 162.039 34.713 161.796 34.4993L160.475 36.0007ZM160.746 36.3235L164.126 41.5435L165.805 40.4565L162.425 35.2365L160.746 36.3235Z" fill="white" mask="url(#path-3-outside-1_3051_7)"/>
<defs>
<filter id="filter0_d_3051_7" x="0" y="0" width="220" height="71" filterUnits="userSpaceOnUse" color-interpolation-filters="sRGB">
<feFlood flood-opacity="0" result="BackgroundImageFix"/>
<feColorMatrix in="SourceAlpha" type="matrix" values="0 0 0 0 0 0 0 0 0 0 0 0 0 0 0 0 0 0 127 0" result="hardAlpha"/>
<feOffset dx="4" dy="5"/>
<feComposite in2="hardAlpha" operator="out"/>
<feColorMatrix type="matrix" values="0 0 0 0 0.00784314 0 0 0 0 0.0941176 0 0 0 0 0.494118 0 0 0 1 0"/>
<feBlend mode="normal" in2="BackgroundImageFix" result="effect1_dropShadow_3051_7"/>
<feBlend mode="normal" in="SourceGraphic" in2="effect1_dropShadow_3051_7" result="shape"/>
</filter>
</defs>
</svg>
