<svg width="72" height="56" viewBox="0 0 72 56" fill="none" xmlns="http://www.w3.org/2000/svg">
<path d="M66.6414 41.1184L16.5988 7.54748C13.3838 5.39066 8.31942 5.5937 5.28733 8.001C2.25524 10.4083 2.40358 14.1082 5.61866 16.2651L55.6612 49.836C58.8763 51.9928 63.9407 51.7898 66.9728 49.3825C70.0048 46.9752 69.8565 43.2752 66.6414 41.1184Z" fill="#F39E46" stroke="white" stroke-width="4"/>
<path d="M54.5369 3.78547L7.84021 41.5885C4.79178 44.0563 4.55204 48.3218 7.30472 51.1157C10.0574 53.9096 14.7601 54.1739 17.8086 51.706L64.5053 13.903C67.5537 11.4352 67.7935 7.16974 65.0408 4.37585C62.2881 1.58197 57.5854 1.31764 54.5369 3.78547Z" fill="#F39E46" stroke="white" stroke-width="4"/>
</svg>
