<svg width="42" height="42" viewBox="0 0 42 42" fill="none" xmlns="http://www.w3.org/2000/svg">
<path d="M41.2289 22.8539C42.2543 21.8285 42.2543 20.1633 41.2289 19.1379L30.7289 8.63789C29.7035 7.6125 28.0383 7.6125 27.0129 8.63789C25.9875 9.66328 25.9875 11.3285 27.0129 12.3539L33.034 18.375H15.75C14.298 18.375 13.125 19.548 13.125 21C13.125 22.452 14.298 23.625 15.75 23.625H33.034L27.0129 29.6461C25.9875 30.6715 25.9875 32.3367 27.0129 33.3621C28.0383 34.3875 29.7035 34.3875 30.7289 33.3621L41.2289 22.8621V22.8539ZM13.125 7.875C14.577 7.875 15.75 6.70195 15.75 5.25C15.75 3.79805 14.577 2.625 13.125 2.625H7.875C3.52734 2.625 0 6.15234 0 10.5V31.5C0 35.8477 3.52734 39.375 7.875 39.375H13.125C14.577 39.375 15.75 38.202 15.75 36.75C15.75 35.298 14.577 34.125 13.125 34.125H7.875C6.42305 34.125 5.25 32.952 5.25 31.5V10.5C5.25 9.04805 6.42305 7.875 7.875 7.875H13.125Z" fill="#FF81CB"/>
</svg>
