<svg width="37" height="32" viewBox="0 0 37 32" fill="none" xmlns="http://www.w3.org/2000/svg">
<g clip-path="url(#clip0_374_974)">
<path d="M36.5758 1.5C36.5758 0.66875 35.9113 0 35.0852 0H32.2594C30.893 0 29.6819 0.8 29.1167 2H3.59066C1.95724 2 0.764778 3.5625 1.19332 5.15L3.73972 14.6687C4.26763 16.6313 6.03768 18 8.05617 18H25.9741L25.6387 19.7812C25.5021 20.4875 24.8872 21 24.173 21H6.26748C5.44145 21 4.77691 21.6688 4.77691 22.5C4.77691 23.3312 5.44145 24 6.26748 24H24.173C26.3219 24 28.1665 22.4625 28.564 20.3438L31.7687 3.40625C31.8122 3.16875 32.0171 3 32.2594 3H35.0852C35.9113 3 36.5758 2.33125 36.5758 1.5ZM28.6261 29C28.6261 28.606 28.549 28.2159 28.3992 27.8519C28.2493 27.488 28.0297 27.1573 27.7529 26.8787C27.4761 26.6001 27.1475 26.3791 26.7858 26.2284C26.4241 26.0776 26.0364 26 25.6449 26C25.2534 26 24.8658 26.0776 24.5041 26.2284C24.1424 26.3791 23.8138 26.6001 23.5369 26.8787C23.2601 27.1573 23.0405 27.488 22.8907 27.8519C22.7409 28.2159 22.6638 28.606 22.6638 29C22.6638 29.394 22.7409 29.7841 22.8907 30.1481C23.0405 30.512 23.2601 30.8427 23.5369 31.1213C23.8138 31.3999 24.1424 31.6209 24.5041 31.7716C24.8658 31.9224 25.2534 32 25.6449 32C26.0364 32 26.4241 31.9224 26.7858 31.7716C27.1475 31.6209 27.4761 31.3999 27.7529 31.1213C28.0297 30.8427 28.2493 30.512 28.3992 30.1481C28.549 29.7841 28.6261 29.394 28.6261 29ZM7.75805 26C6.96741 26 6.20914 26.3161 5.65006 26.8787C5.09099 27.4413 4.77691 28.2044 4.77691 29C4.77691 29.7956 5.09099 30.5587 5.65006 31.1213C6.20914 31.6839 6.96741 32 7.75805 32C8.5487 32 9.30697 31.6839 9.86604 31.1213C10.4251 30.5587 10.7392 29.7956 10.7392 29C10.7392 28.2044 10.4251 27.4413 9.86604 26.8787C9.30697 26.3161 8.5487 26 7.75805 26Z" fill="black"/>
</g>
<defs>
<clipPath id="clip0_374_974">
<rect width="35.7738" height="32" fill="white" transform="matrix(-1 0 0 1 36.5758 0)"/>
</clipPath>
</defs>
</svg>
