<svg width="37" height="37" viewBox="0 0 37 37" fill="none" xmlns="http://www.w3.org/2000/svg">
<path d="M18.6084 1.99453C18.5506 1.6043 18.2543 1.28633 17.8641 1.22851C16.267 1.00449 14.641 1.29355 13.2102 2.05234L7.86252 4.90684C6.43889 5.66562 5.28987 6.85801 4.58166 8.31055L1.92951 13.7738C1.22131 15.2264 0.990061 16.874 1.2719 18.4639L2.31975 24.4475C2.60158 26.0445 3.37483 27.5043 4.5383 28.6316L8.89592 32.852C10.0594 33.9793 11.5408 34.702 13.1379 34.926L19.136 35.7715C20.733 35.9955 22.359 35.7064 23.7899 34.9477L29.1375 32.0932C30.5612 31.3344 31.7102 30.142 32.4184 28.6822L35.0705 23.2262C35.7787 21.7736 36.01 20.126 35.7281 18.5361C35.6631 18.1531 35.3451 17.8641 34.9621 17.8062C31.2404 17.2137 28.2559 14.4025 27.4104 10.7676C27.2803 10.2184 26.8322 9.79922 26.2758 9.7125C22.3301 9.08379 19.2155 5.95469 18.6012 1.99453H18.6084ZM15.0313 10.4062C15.6446 10.4062 16.2328 10.6499 16.6665 11.0836C17.1001 11.5172 17.3438 12.1054 17.3438 12.7187C17.3438 13.3321 17.1001 13.9203 16.6665 14.3539C16.2328 14.7876 15.6446 15.0312 15.0313 15.0312C14.418 15.0312 13.8298 14.7876 13.3961 14.3539C12.9624 13.9203 12.7188 13.3321 12.7188 12.7187C12.7188 12.1054 12.9624 11.5172 13.3961 11.0836C13.8298 10.6499 14.418 10.4062 15.0313 10.4062ZM10.4063 24.2812C10.4063 23.6679 10.6499 23.0797 11.0836 22.6461C11.5173 22.2124 12.1055 21.9688 12.7188 21.9688C13.3321 21.9688 13.9203 22.2124 14.354 22.6461C14.7876 23.0797 15.0313 23.6679 15.0313 24.2812C15.0313 24.8946 14.7876 25.4828 14.354 25.9164C13.9203 26.3501 13.3321 26.5938 12.7188 26.5938C12.1055 26.5938 11.5173 26.3501 11.0836 25.9164C10.6499 25.4828 10.4063 24.8946 10.4063 24.2812ZM26.5938 19.6562C27.2071 19.6562 27.7953 19.8999 28.229 20.3336C28.6626 20.7672 28.9063 21.3554 28.9063 21.9688C28.9063 22.5821 28.6626 23.1703 28.229 23.6039C27.7953 24.0376 27.2071 24.2812 26.5938 24.2812C25.9805 24.2812 25.3923 24.0376 24.9586 23.6039C24.5249 23.1703 24.2813 22.5821 24.2813 21.9688C24.2813 21.3554 24.5249 20.7672 24.9586 20.3336C25.3923 19.8999 25.9805 19.6562 26.5938 19.6562Z" fill="#FF81CB"/>
</svg>
