<svg width="38" height="34" viewBox="0 0 38 34" fill="none" xmlns="http://www.w3.org/2000/svg">
<g clip-path="url(#clip0_168_417)">
<path d="M37.9868 16.9668C37.9868 18.1621 36.9972 19.0984 35.8757 19.0984H33.7646L33.8108 29.7367C33.8108 29.916 33.7976 30.0953 33.7778 30.2746V31.3504C33.7778 32.818 32.5969 34.0066 31.1389 34.0066H30.0833C30.0108 34.0066 29.9382 34.0066 29.8656 34C29.7733 34.0066 29.6809 34.0066 29.5885 34.0066L27.4444 34H25.8611C24.4031 34 23.2222 32.8113 23.2222 31.3438V29.75V25.5C23.2222 24.3246 22.2788 23.375 21.1111 23.375H16.8889C15.7212 23.375 14.7778 24.3246 14.7778 25.5V29.75V31.3438C14.7778 32.8113 13.5969 34 12.1389 34H10.5555H8.45104C8.35208 34 8.25312 33.9934 8.15416 33.9867C8.075 33.9934 7.99583 34 7.91666 34H6.86111C5.40312 34 4.22222 32.8113 4.22222 31.3438V23.9062C4.22222 23.8465 4.22222 23.7801 4.22881 23.7203V19.0918H2.1177C0.930203 19.0918 0.0065918 18.1621 0.0065918 16.9602C0.0065918 16.3625 0.204508 15.8312 0.666314 15.3664L17.575 0.53125C18.0368 0.0664062 18.5646 0 19.0264 0C19.4882 0 20.016 0.132812 20.4118 0.464844L37.2611 15.373C37.7889 15.8379 38.0528 16.3691 37.9868 16.9668Z" fill="#FF81C8"/>
</g>
<defs>
<clipPath id="clip0_168_417">
<rect width="38" height="34" fill="white"/>
</clipPath>
</defs>
</svg>
