<svg width="52" height="52" viewBox="0 0 52 52" fill="none" xmlns="http://www.w3.org/2000/svg">
<g clip-path="url(#clip0_127_304)">
<path d="M42.25 21.125C42.25 25.7867 40.7367 30.093 38.1875 33.5867L51.0453 46.4547C52.3148 47.7242 52.3148 49.7859 51.0453 51.0555C49.7758 52.325 47.7141 52.325 46.4445 51.0555L33.5867 38.1875C30.093 40.7469 25.7867 42.25 21.125 42.25C9.45547 42.25 0 32.7945 0 21.125C0 9.45547 9.45547 0 21.125 0C32.7945 0 42.25 9.45547 42.25 21.125ZM21.125 35.75C23.0456 35.75 24.9474 35.3717 26.7217 34.6367C28.4961 33.9018 30.1084 32.8245 31.4664 31.4664C32.8245 30.1084 33.9018 28.4961 34.6367 26.7217C35.3717 24.9474 35.75 23.0456 35.75 21.125C35.75 19.2044 35.3717 17.3026 34.6367 15.5283C33.9018 13.7539 32.8245 12.1416 31.4664 10.7836C30.1084 9.42551 28.4961 8.34824 26.7217 7.61326C24.9474 6.87829 23.0456 6.5 21.125 6.5C19.2044 6.5 17.3026 6.87829 15.5283 7.61326C13.7539 8.34824 12.1416 9.42551 10.7836 10.7836C9.42551 12.1416 8.34824 13.7539 7.61326 15.5283C6.87829 17.3026 6.5 19.2044 6.5 21.125C6.5 23.0456 6.87829 24.9474 7.61326 26.7217C8.34824 28.4961 9.42551 30.1084 10.7836 31.4664C12.1416 32.8245 13.7539 33.9018 15.5283 34.6367C17.3026 35.3717 19.2044 35.75 21.125 35.75Z" fill="black"/>
</g>
<defs>
<clipPath id="clip0_127_304">
<rect width="52" height="52" fill="white"/>
</clipPath>
</defs>
</svg>
