<svg width="45" height="40" viewBox="0 0 45 40" fill="none" xmlns="http://www.w3.org/2000/svg">
<g clip-path="url(#clip0_168_416)">
<path d="M22.4922 0C23.2109 0 23.8672 0.40625 24.1797 1.05469L29.539 12.0938L41.5078 13.8594C42.2109 13.9609 42.7968 14.4531 43.0156 15.1328C43.2343 15.8125 43.0547 16.5469 42.5547 17.0469L33.875 25.6562L35.9218 37.8125C36.039 38.5156 35.75 39.2266 35.164 39.6484C34.5781 40.0703 33.8125 40.1172 33.1875 39.7812L22.4843 34.0625L11.7968 39.7734C11.164 40.1094 10.3984 40.0625 9.82028 39.6406C9.24216 39.2188 8.94528 38.5078 9.06247 37.8047L11.1093 25.6484L2.42966 17.0469C1.92185 16.5469 1.74997 15.8047 1.96872 15.1328C2.18747 14.4609 2.77341 13.9687 3.47654 13.8594L15.4453 12.0938L20.8047 1.05469C21.125 0.40625 21.7734 0 22.4922 0ZM22.4922 6.17188L18.3906 14.625C18.1172 15.1797 17.5937 15.5703 16.9765 15.6641L7.73435 17.0234L14.4453 23.6719C14.875 24.1016 15.0781 24.7109 14.9765 25.3125L13.3906 34.6641L21.6093 30.2734C22.164 29.9766 22.8281 29.9766 23.375 30.2734L31.5937 34.6641L30.0156 25.3203C29.914 24.7188 30.1093 24.1094 30.5468 23.6797L37.2578 17.0312L28.0156 15.6641C27.4062 15.5703 26.875 15.1875 26.6015 14.625L22.4922 6.17188Z" fill="#FF81CB"/>
</g>
<defs>
<clipPath id="clip0_168_416">
<rect width="45" height="40" fill="white"/>
</clipPath>
</defs>
</svg>
