<svg width="48" height="38" viewBox="0 0 48 38" fill="none" xmlns="http://www.w3.org/2000/svg">
<path d="M4.79999 4.75C4.79999 3.49022 5.3057 2.28204 6.20588 1.39124C7.10605 0.500445 8.32695 0 9.59999 0C10.873 0 12.0939 0.500445 12.9941 1.39124C13.8943 2.28204 14.4 3.49022 14.4 4.75C14.4 6.00978 13.8943 7.21796 12.9941 8.10876C12.0939 8.99956 10.873 9.5 9.59999 9.5C8.32695 9.5 7.10605 8.99956 6.20588 8.10876C5.3057 7.21796 4.79999 6.00978 4.79999 4.75ZM1.94249 17.3227C2.19749 14.2426 4.79999 11.875 7.91999 11.875H11.28C13.305 11.875 15.105 12.8695 16.1925 14.4059C15.99 14.5469 15.8025 14.7027 15.63 14.8734L10.83 19.6234C9.18749 21.2488 9.18749 23.8762 10.83 25.5016L14.4 29.0344V34.4375C14.4 36.4043 12.7875 38 10.8 38H8.39999C6.41249 38 4.79999 36.4043 4.79999 34.4375V25.8504C2.81249 25.1453 1.44749 23.1934 1.63499 20.9816L1.94249 17.3227ZM33.6 4.75C33.6 3.49022 34.1057 2.28204 35.0059 1.39124C35.9061 0.500445 37.1269 0 38.4 0C39.673 0 40.8939 0.500445 41.7941 1.39124C42.6943 2.28204 43.2 3.49022 43.2 4.75C43.2 6.00978 42.6943 7.21796 41.7941 8.10876C40.8939 8.99956 39.673 9.5 38.4 9.5C37.1269 9.5 35.9061 8.99956 35.0059 8.10876C34.1057 7.21796 33.6 6.00978 33.6 4.75ZM32.37 14.8734C32.1975 14.7027 32.0025 14.5469 31.8075 14.4059C32.895 12.8695 34.7025 11.875 36.72 11.875H40.08C43.2 11.875 45.8025 14.2426 46.0575 17.3227L46.365 20.9816C46.5525 23.1934 45.1875 25.1453 43.2 25.8504V34.4375C43.2 36.4043 41.5875 38 39.6 38H37.2C35.2125 38 33.6 36.4043 33.6 34.4375V29.0344L37.17 25.5016C38.8125 23.8762 38.8125 21.2488 37.17 19.6234L32.37 14.8734ZM20.4 17.8125V20.1875H27.6V17.8125C27.6 17.0926 28.035 16.4395 28.71 16.1648C29.385 15.8902 30.1575 16.0387 30.675 16.5508L35.475 21.3008C36.18 21.9984 36.18 23.1266 35.475 23.8168L30.675 28.5668C30.1575 29.0789 29.385 29.2273 28.71 28.9527C28.035 28.6781 27.6 28.025 27.6 27.3051V24.9301H20.4V27.3051C20.4 28.025 19.965 28.6781 19.29 28.9527C18.615 29.2273 17.8425 29.0789 17.325 28.5668L12.525 23.8168C11.82 23.1191 11.82 21.991 12.525 21.3008L17.325 16.5508C17.8425 16.0387 18.615 15.8902 19.29 16.1648C19.965 16.4395 20.4 17.0926 20.4 17.8125Z" fill="#FF81CB"/>
</svg>
