<svg width="42" height="29" viewBox="0 0 42 29" fill="none" xmlns="http://www.w3.org/2000/svg">
<g opacity="0.7" clip-path="url(#clip0_168_384)">
<path d="M24.8851 1.93397C23.97 2.21739 23.3732 2.85649 23.3732 3.55672V7.11344H14.4608C6.72613 7.11344 0.455627 11.4927 0.455627 16.8944C0.455627 23.1909 6.94098 26.003 8.42903 26.5698C8.62797 26.6476 8.85078 26.6754 9.07359 26.6754C9.94095 26.6754 10.6412 26.1808 10.6412 25.5806C10.6412 25.1638 10.299 24.7803 9.86138 24.4969C9.11337 24.0023 8.09482 23.0298 8.09482 21.3403C8.09482 18.3949 11.5165 16.0052 15.734 16.0052H23.3732V19.562C23.3732 20.2622 23.962 20.9013 24.8851 21.1847C25.8082 21.4681 26.8745 21.3514 27.6225 20.8846L40.3545 12.882C40.8876 12.543 41.198 12.0651 41.198 11.5593C41.198 11.0536 40.8956 10.5757 40.3545 10.2367L27.6225 2.23407C26.8745 1.76169 25.8002 1.64498 24.8851 1.93397Z" fill="white"/>
</g>
<defs>
<clipPath id="clip0_168_384">
<rect width="40.7423" height="28.4538" fill="white" transform="translate(0.455627)"/>
</clipPath>
</defs>
</svg>
